<svg width="18" height="25" viewBox="0 0 18 25" fill="none" xmlns="http://www.w3.org/2000/svg">
<path fill-rule="evenodd" clip-rule="evenodd" d="M2 2H12V9H6C5.44772 9 5 9.44771 5 10V15H2L2 2ZM5 16H2C1.44772 16 1 15.5523 1 15V2C1 1.44772 1.44772 1 2 1H12C12.5523 1 13 1.44772 13 2V9H16C16.5523 9 17 9.44772 17 10V23C17 23.5523 16.5523 24 16 24H6C5.44771 24 5 23.5523 5 23V16ZM13 10H16V23H6V16H12C12.5523 16 13 15.5523 13 15V10ZM12 10V15H6V10H12Z" fill="#3D008A"/>
<path d="M12 2H12.75V1.25H12V2ZM2 2V1.25H1.25V2H2ZM12 9V9.75H12.75V9H12ZM5 15V15.75H5.75V15H5ZM2 15H1.25L1.25 15.75H2V15ZM5 16H5.75V15.25H5V16ZM13 9H12.25V9.75H13V9ZM16 10H16.75V9.25H16V10ZM13 10V9.25H12.25V10H13ZM16 23V23.75H16.75V23H16ZM6 23H5.25V23.75H6V23ZM6 16V15.25H5.25V16H6ZM12 15V15.75H12.75V15H12ZM12 10H12.75V9.25H12V10ZM6 15H5.25V15.75H6V15ZM6 10V9.25H5.25V10H6ZM12 1.25H2V2.75H12V1.25ZM12.75 9V2H11.25V9H12.75ZM12 8.25H6V9.75H12V8.25ZM6 8.25C5.0335 8.25 4.25 9.0335 4.25 10H5.75C5.75 9.86193 5.86193 9.75 6 9.75V8.25ZM4.25 10V15H5.75V10H4.25ZM2 15.75H5V14.25H2V15.75ZM1.25 2L1.25 15H2.75L2.75 2H1.25ZM2 16.75H5V15.25H2V16.75ZM0.25 15C0.25 15.9665 1.0335 16.75 2 16.75V15.25C1.86193 15.25 1.75 15.1381 1.75 15H0.25ZM0.25 2V15H1.75V2H0.25ZM2 0.25C1.0335 0.25 0.25 1.0335 0.25 2H1.75C1.75 1.86193 1.86193 1.75 2 1.75V0.25ZM12 0.25H2V1.75H12V0.25ZM13.75 2C13.75 1.0335 12.9665 0.25 12 0.25V1.75C12.1381 1.75 12.25 1.86193 12.25 2H13.75ZM13.75 9V2H12.25V9H13.75ZM16 8.25H13V9.75H16V8.25ZM17.75 10C17.75 9.0335 16.9665 8.25 16 8.25V9.75C16.1381 9.75 16.25 9.86193 16.25 10H17.75ZM17.75 23V10H16.25V23H17.75ZM16 24.75C16.9665 24.75 17.75 23.9665 17.75 23H16.25C16.25 23.1381 16.1381 23.25 16 23.25V24.75ZM6 24.75H16V23.25H6V24.75ZM4.25 23C4.25 23.9665 5.0335 24.75 6 24.75V23.25C5.86193 23.25 5.75 23.1381 5.75 23H4.25ZM4.25 16V23H5.75V16H4.25ZM16 9.25H13V10.75H16V9.25ZM16.75 23V10H15.25V23H16.75ZM6 23.75H16V22.25H6V23.75ZM5.25 16V23H6.75V16H5.25ZM6 16.75H12V15.25H6V16.75ZM12 16.75C12.9665 16.75 13.75 15.9665 13.75 15H12.25C12.25 15.1381 12.1381 15.25 12 15.25V16.75ZM13.75 15V10H12.25V15H13.75ZM12.75 15V10H11.25V15H12.75ZM6 15.75H12V14.25H6V15.75ZM5.25 10V15H6.75V10H5.25ZM12 9.25H6V10.75H12V9.25Z" fill="#3D008A"/>
</svg>
