<svg width="40" height="40" viewBox="0 0 40 40" fill="none" xmlns="http://www.w3.org/2000/svg">
<mask id="path-1-outside-1" maskUnits="userSpaceOnUse" x="0" y="0" width="40" height="40" fill="black">
<rect fill="white" width="40" height="40"/>
<path fill-rule="evenodd" clip-rule="evenodd" d="M22.5 4H17.5V17.5H4V22.5H17.5V36H22.5V22.5H36V17.5H22.5V4Z"/>
</mask>
<path fill-rule="evenodd" clip-rule="evenodd" d="M22.5 4H17.5V17.5H4V22.5H17.5V36H22.5V22.5H36V17.5H22.5V4Z" fill="#2A005F"/>
<path d="M17.5 4V0H13.5V4H17.5ZM22.5 4H26.5V0H22.5V4ZM17.5 17.5V21.5H21.5V17.5H17.5ZM4 17.5V13.5H0V17.5H4ZM4 22.5H0V26.5H4V22.5ZM17.5 22.5H21.5V18.5H17.5V22.5ZM17.5 36H13.5V40H17.5V36ZM22.5 36V40H26.5V36H22.5ZM22.5 22.5V18.5H18.5V22.5H22.5ZM36 22.5V26.5H40V22.5H36ZM36 17.5H40V13.5H36V17.5ZM22.5 17.5H18.5V21.5H22.5V17.5ZM17.5 8H22.5V0H17.5V8ZM21.5 17.5V4H13.5V17.5H21.5ZM4 21.5H17.5V13.5H4V21.5ZM8 22.5V17.5H0V22.5H8ZM17.5 18.5H4V26.5H17.5V18.5ZM21.5 36V22.5H13.5V36H21.5ZM22.5 32H17.5V40H22.5V32ZM18.5 22.5V36H26.5V22.5H18.5ZM36 18.5H22.5V26.5H36V18.5ZM32 17.5V22.5H40V17.5H32ZM22.5 21.5H36V13.5H22.5V21.5ZM18.5 4V17.5H26.5V4H18.5Z" fill="white" mask="url(#path-1-outside-1)"/>
</svg>
